<svg viewBox="0 0 300 144" xmlns="http://www.w3.org/2000/svg"><rect x="199" y="24" width="97" height="80" fill="rgba(124,77,255,0.06)" stroke="rgba(124,77,255,0.20)" stroke-width="1" stroke-dasharray="3 3"/><text x="247.5" y="77" fill="rgba(201,179,255,0.26)" font-size="40" font-weight="bold" font-family="monospace" text-anchor="middle">?</text><rect x="8" y="24" width="19.75" height="8.727272727272734" fill="#ea3943"/><rect x="31.75" y="25.454545454545453" width="19.75" height="7.2727272727272805" fill="#16c784"/><rect x="55.5" y="25.454545454545453" width="19.75" height="14.545454545454547" fill="#ea3943"/><rect x="79.25" y="40" width="19.75" height="10.18181818181818" fill="#ea3943"/><rect x="103" y="41.45454545454545" width="19.75" height="8.727272727272727" fill="#16c784"/><rect x="126.75" y="41.45454545454545" width="19.75" height="17.45454545454546" fill="#ea3943"/><rect x="150.5" y="58.909090909090914" width="19.75" height="13.090909090909086" fill="#ea3943"/><rect x="174.25" y="72" width="19.75" height="32" fill="#ea3943"/><line x1="199" y1="21" x2="199" y2="106" stroke="#7fd6ff" stroke-width="1.5" stroke-dasharray="4 3"/><line x1="202" y1="104" x2="282" y2="37" stroke="#9a86d8" stroke-width="2" stroke-dasharray="5 3" opacity="0.5"/><line x1="202" y1="104" x2="282" y2="93" stroke="#9a86d8" stroke-width="2" stroke-dasharray="5 3" opacity="0.5"/><text x="285" y="42" fill="#c9b3ff" font-size="13" font-weight="bold" font-family="monospace" text-anchor="middle">↑</text><text x="285" y="99" fill="#c9b3ff" font-size="13" font-weight="bold" font-family="monospace" text-anchor="middle">↓</text><text x="96" y="10" fill="#ffd479" font-size="8" font-weight="bold" font-family="monospace" text-anchor="middle">THIS JUST HAPPENED</text><line x1="96" y1="13" x2="184.125" y2="69" stroke="#ffd479" stroke-width="1" stroke-dasharray="2 2" opacity="0.6"/><text x="247.5" y="10" fill="#c9b3ff" font-size="8" font-weight="bold" font-family="monospace" text-anchor="middle">WHAT NEXT?</text><text x="196" y="116" fill="#7fd6ff" font-size="8.5" font-weight="bold" font-family="monospace" text-anchor="end">▲ YOU ARE HERE</text><line x1="6" y1="118" x2="294" y2="118" stroke="#1c2737" stroke-width="1"/><text x="150" y="135" fill="#ffd60a" font-size="9.5" font-weight="bold" font-family="monospace" text-anchor="middle">WHAT HAPPENS NEXT — UP or DOWN?</text></svg>