<svg xmlns="http://www.w3.org/2000/svg" width="560" height="980" viewBox="0 0 560 980" font-family="-apple-system,Segoe UI,Roboto,sans-serif"><rect width="560" height="980" fill="#0a0e16"/><line x1="0" y1="96" x2="560" y2="96" stroke="rgba(125,138,160,0.08)" stroke-width="1"/><line x1="0" y1="198" x2="560" y2="198" stroke="rgba(125,138,160,0.08)" stroke-width="1"/><line x1="0" y1="299" x2="560" y2="299" stroke="rgba(125,138,160,0.08)" stroke-width="1"/><line x1="0" y1="401" x2="560" y2="401" stroke="rgba(125,138,160,0.08)" stroke-width="1"/><line x1="0" y1="502" x2="560" y2="502" stroke="rgba(125,138,160,0.08)" stroke-width="1"/><line x1="0" y1="604" x2="560" y2="604" stroke="rgba(125,138,160,0.08)" stroke-width="1"/><line x1="0" y1="705" x2="560" y2="705" stroke="rgba(125,138,160,0.08)" stroke-width="1"/><line x1="0" y1="807" x2="560" y2="807" stroke="rgba(125,138,160,0.08)" stroke-width="1"/><line x1="0" y1="908" x2="560" y2="908" stroke="rgba(125,138,160,0.08)" stroke-width="1"/><line x1="0" y1="756.1" x2="560" y2="756.1" stroke="#16c784" stroke-width="2" stroke-dasharray="5 5" opacity="0.9"/><text x="546" y="749.1" fill="#16c784" font-size="11" font-weight="700" text-anchor="end" opacity="0.92">SUPPORT</text><line x1="34.5" y1="321.0" x2="34.5" y2="464.1" stroke="#8595ad" stroke-width="4.12"/><rect x="19.8" y="338.3" width="29.5" height="108.5" rx="2" fill="#ea3943" stroke="#ff6b73" stroke-width="0.8"/><line x1="83.6" y1="429.4" x2="83.6" y2="585.5" stroke="#8595ad" stroke-width="4.12"/><rect x="68.9" y="446.8" width="29.5" height="112.6" rx="2" fill="#ea3943" stroke="#ff6b73" stroke-width="0.8"/><line x1="132.7" y1="533.4" x2="132.7" y2="650.5" stroke="#8595ad" stroke-width="4.12"/><rect x="118.0" y="559.4" width="29.5" height="73.7" rx="2" fill="#ea3943" stroke="#ff6b73" stroke-width="0.8"/><line x1="181.8" y1="615.8" x2="181.8" y2="747.4" stroke="#8595ad" stroke-width="4.12"/><rect x="167.1" y="633.2" width="29.5" height="79.6" rx="2" fill="#ea3943" stroke="#ff6b73" stroke-width="0.8"/><line x1="230.9" y1="695.4" x2="230.9" y2="817.3" stroke="#8595ad" stroke-width="4.12"/><rect x="216.2" y="712.7" width="29.5" height="42.3" rx="2" fill="#ea3943" stroke="#ff6b73" stroke-width="0.8"/><line x1="280.0" y1="698.4" x2="280.0" y2="770.9" stroke="#8595ad" stroke-width="4.12"/><rect x="265.3" y="715.7" width="29.5" height="39.3" rx="2" fill="#16c784" stroke="#33e6a0" stroke-width="0.8"/><rect x="310.4" y="486.0" width="37.5" height="233.7" rx="4" fill="rgba(22,199,132,0.20)"/><line x1="329.1" y1="472.6" x2="329.1" y2="741.8" stroke="#8595ad" stroke-width="4.12"/><rect x="314.4" y="490.0" width="29.5" height="225.7" rx="2" fill="#16c784" stroke="#33e6a0" stroke-width="1.6"/><line x1="378.2" y1="356.5" x2="378.2" y2="507.4" stroke="#8595ad" stroke-width="4.12"/><rect x="363.5" y="373.9" width="29.5" height="116.1" rx="2" fill="#16c784" stroke="#33e6a0" stroke-width="0.8"/><line x1="427.3" y1="356.5" x2="427.3" y2="437.6" stroke="#8595ad" stroke-width="4.12"/><rect x="412.5" y="373.9" width="29.5" height="46.4" rx="2" fill="#ea3943" stroke="#ff6b73" stroke-width="0.8"/><line x1="476.4" y1="292.0" x2="476.4" y2="437.6" stroke="#8595ad" stroke-width="4.12"/><rect x="461.6" y="309.4" width="29.5" height="110.9" rx="2" fill="#16c784" stroke="#33e6a0" stroke-width="0.8"/><line x1="525.5" y1="216.4" x2="525.5" y2="326.7" stroke="#8595ad" stroke-width="4.12"/><rect x="510.7" y="233.8" width="29.5" height="75.6" rx="2" fill="#16c784" stroke="#33e6a0" stroke-width="0.8"/><rect x="0" y="392" width="560" height="196" fill="rgba(124,77,255,0.06)"/><line x1="0" y1="490" x2="560" y2="490" stroke="rgba(150,130,230,0.28)" stroke-width="1" stroke-dasharray="3 6"/><text x="548" y="386" fill="rgba(165,150,220,0.7)" font-size="10.5" text-anchor="end">camera keeps turtle 40–60%</text><ellipse cx="313.0909090909091" cy="486.0" rx="7" ry="3.4" fill="rgba(61,220,106,0.3)"/><g><ellipse cx="329.0909090909091" cy="477" rx="27.75" ry="20.35" fill="rgba(61,220,106,0.16)"/><rect x="316.1" y="485.3" width="7.4" height="9.25" rx="2.7750000000000004" fill="#3ddc6a"/><rect x="332.8" y="485.3" width="7.4" height="9.25" rx="2.7750000000000004" fill="#3ddc6a"/><ellipse cx="329.0909090909091" cy="477" rx="20.35" ry="15.725000000000001" fill="#2bb455" stroke="#157a36" stroke-width="2.9600000000000004"/><path d="M319.8 471.4 L329.1 466.8 L338.3 471.4 M319.8 482.6 L329.1 487.2 L338.3 482.6 M329.1 466.8 L329.1 487.2" stroke="#157a36" stroke-width="1.85" fill="none" opacity="0.8"/><circle cx="349.4" cy="475.1" r="9.25" fill="#3ddc6a"/><rect x="344.8" y="470.7" width="10.175" height="6.66" rx="2.9600000000000004" fill="#10141a"/><circle cx="352.4" cy="473.7" r="1.4800000000000002" fill="#3b4a5e"/></g><rect x="0" y="0" width="560" height="96" fill="rgba(7,10,18,0.9)"/><text x="22" y="40" fill="#eaf2ff" font-size="20" font-weight="800">GUARDIAN 1 · SUPPORT BOUNCE</text><text x="22" y="64" fill="#9fb0c4" font-size="13">Price bounces off the green floor — read the reaction, then jump</text><rect x="22" y="78" width="516" height="6" rx="3" fill="rgba(255,255,255,0.08)"/><rect x="22" y="78" width="237.36" height="6" rx="3" fill="#ffd60a"/><rect x="0" y="908" width="560" height="72" fill="rgba(7,10,18,0.9)"/><rect x="28" y="926" width="160" height="38" rx="9" fill="rgba(20,26,40,0.92)" stroke="rgba(124,77,255,0.4)"/><text x="108" y="950" fill="#cdd9ea" font-size="12" font-weight="700" text-anchor="middle">📖 JOURNAL</text><rect x="200" y="926" width="160" height="38" rx="9" fill="rgba(20,26,40,0.92)" stroke="rgba(124,77,255,0.4)"/><text x="280" y="950" fill="#cdd9ea" font-size="12" font-weight="700" text-anchor="middle">🐚 WALLET</text><rect x="372" y="926" width="160" height="38" rx="9" fill="rgba(20,26,40,0.92)" stroke="rgba(124,77,255,0.4)"/><text x="452" y="950" fill="#cdd9ea" font-size="12" font-weight="700" text-anchor="middle">⚔ FIGHT</text></svg>