<svg xmlns="http://www.w3.org/2000/svg" width="560" height="980" viewBox="0 0 560 980" font-family="-apple-system,Segoe UI,Roboto,sans-serif"><rect width="560" height="980" fill="#0a0e16"/><line x1="0" y1="96" x2="560" y2="96" stroke="rgba(125,138,160,0.08)" stroke-width="1"/><line x1="0" y1="198" x2="560" y2="198" stroke="rgba(125,138,160,0.08)" stroke-width="1"/><line x1="0" y1="299" x2="560" y2="299" stroke="rgba(125,138,160,0.08)" stroke-width="1"/><line x1="0" y1="401" x2="560" y2="401" stroke="rgba(125,138,160,0.08)" stroke-width="1"/><line x1="0" y1="502" x2="560" y2="502" stroke="rgba(125,138,160,0.08)" stroke-width="1"/><line x1="0" y1="604" x2="560" y2="604" stroke="rgba(125,138,160,0.08)" stroke-width="1"/><line x1="0" y1="705" x2="560" y2="705" stroke="rgba(125,138,160,0.08)" stroke-width="1"/><line x1="0" y1="807" x2="560" y2="807" stroke="rgba(125,138,160,0.08)" stroke-width="1"/><line x1="0" y1="908" x2="560" y2="908" stroke="rgba(125,138,160,0.08)" stroke-width="1"/><line x1="0" y1="607.3" x2="560" y2="607.3" stroke="#ffd60a" stroke-width="2" stroke-dasharray="8 5" opacity="0.9"/><text x="546" y="600.3" fill="#ffd60a" font-size="11" font-weight="700" text-anchor="end" opacity="0.92">STRUCTURE BROKEN</text><line x1="32.5" y1="762.3" x2="32.5" y2="928.1" stroke="#8595ad" stroke-width="3.78"/><rect x="19.0" y="782.3" width="27.0" height="125.9" rx="2" fill="#16c784" stroke="#33e6a0" stroke-width="0.8"/><line x1="77.5" y1="593.5" x2="77.5" y2="802.2" stroke="#8595ad" stroke-width="3.78"/><rect x="64.0" y="623.3" width="27.0" height="158.9" rx="2" fill="#16c784" stroke="#33e6a0" stroke-width="0.8"/><line x1="122.5" y1="603.4" x2="122.5" y2="736.6" stroke="#8595ad" stroke-width="3.78"/><rect x="109.0" y="623.3" width="27.0" height="93.3" rx="2" fill="#ea3943" stroke="#ff6b73" stroke-width="0.8"/><line x1="167.5" y1="696.7" x2="167.5" y2="826.7" stroke="#8595ad" stroke-width="3.78"/><rect x="154.0" y="716.7" width="27.0" height="80.2" rx="2" fill="#ea3943" stroke="#ff6b73" stroke-width="0.8"/><line x1="212.5" y1="711.7" x2="212.5" y2="816.7" stroke="#8595ad" stroke-width="3.78"/><rect x="199.0" y="731.6" width="27.0" height="65.2" rx="2" fill="#16c784" stroke="#33e6a0" stroke-width="0.8"/><line x1="257.5" y1="711.7" x2="257.5" y2="806.1" stroke="#8595ad" stroke-width="3.78"/><rect x="244.0" y="731.6" width="27.0" height="54.5" rx="2" fill="#ea3943" stroke="#ff6b73" stroke-width="0.8"/><line x1="302.5" y1="698.1" x2="302.5" y2="806.1" stroke="#8595ad" stroke-width="3.78"/><rect x="289.0" y="718.1" width="27.0" height="68.1" rx="2" fill="#16c784" stroke="#33e6a0" stroke-width="0.8"/><line x1="347.5" y1="625.9" x2="347.5" y2="738.0" stroke="#8595ad" stroke-width="3.78"/><rect x="334.0" y="655.8" width="27.0" height="62.3" rx="2" fill="#16c784" stroke="#33e6a0" stroke-width="0.8"/><rect x="375.0" y="486.0" width="35.0" height="173.8" rx="4" fill="rgba(22,199,132,0.20)"/><line x1="392.5" y1="475.1" x2="392.5" y2="675.7" stroke="#8595ad" stroke-width="3.78"/><rect x="379.0" y="490.0" width="27.0" height="165.8" rx="2" fill="#16c784" stroke="#33e6a0" stroke-width="1.6"/><line x1="437.5" y1="370.6" x2="437.5" y2="509.9" stroke="#8595ad" stroke-width="3.78"/><rect x="424.0" y="390.5" width="27.0" height="99.5" rx="2" fill="#16c784" stroke="#33e6a0" stroke-width="0.8"/><line x1="482.5" y1="370.6" x2="482.5" y2="457.6" stroke="#8595ad" stroke-width="3.78"/><rect x="469.0" y="390.5" width="27.0" height="47.2" rx="2" fill="#ea3943" stroke="#ff6b73" stroke-width="0.8"/><line x1="527.5" y1="327.2" x2="527.5" y2="457.6" stroke="#8595ad" stroke-width="3.78"/><rect x="514.0" y="347.1" width="27.0" height="90.5" rx="2" fill="#16c784" stroke="#33e6a0" stroke-width="0.8"/><rect x="0" y="392" width="560" height="196" fill="rgba(124,77,255,0.06)"/><line x1="0" y1="490" x2="560" y2="490" stroke="rgba(150,130,230,0.28)" stroke-width="1" stroke-dasharray="3 6"/><text x="548" y="386" fill="rgba(165,150,220,0.7)" font-size="10.5" text-anchor="end">camera keeps turtle 40–60%</text><ellipse cx="376.5" cy="486.0" rx="7" ry="3.4" fill="rgba(61,220,106,0.3)"/><g><ellipse cx="392.5" cy="477" rx="27.75" ry="20.35" fill="rgba(61,220,106,0.16)"/><rect x="379.6" y="485.3" width="7.4" height="9.25" rx="2.7750000000000004" fill="#3ddc6a"/><rect x="396.2" y="485.3" width="7.4" height="9.25" rx="2.7750000000000004" fill="#3ddc6a"/><ellipse cx="392.5" cy="477" rx="20.35" ry="15.725000000000001" fill="#2bb455" stroke="#157a36" stroke-width="2.9600000000000004"/><path d="M383.3 471.4 L392.5 466.8 L401.8 471.4 M383.3 482.6 L392.5 487.2 L401.8 482.6 M392.5 466.8 L392.5 487.2" stroke="#157a36" stroke-width="1.85" fill="none" opacity="0.8"/><circle cx="412.9" cy="475.1" r="9.25" fill="#3ddc6a"/><rect x="408.2" y="470.7" width="10.175" height="6.66" rx="2.9600000000000004" fill="#10141a"/><circle cx="415.8" cy="473.7" r="1.4800000000000002" fill="#3b4a5e"/></g><rect x="0" y="0" width="560" height="96" fill="rgba(7,10,18,0.9)"/><text x="22" y="40" fill="#eaf2ff" font-size="20" font-weight="800">GUARDIAN 2 · BREAK OF STRUCTURE</text><text x="22" y="64" fill="#9fb0c4" font-size="13">Price closes above the broken level (gold) — structure is broken</text><rect x="22" y="78" width="516" height="6" rx="3" fill="rgba(255,255,255,0.08)"/><rect x="22" y="78" width="237.36" height="6" rx="3" fill="#ffd60a"/><rect x="0" y="908" width="560" height="72" fill="rgba(7,10,18,0.9)"/><rect x="28" y="926" width="160" height="38" rx="9" fill="rgba(20,26,40,0.92)" stroke="rgba(124,77,255,0.4)"/><text x="108" y="950" fill="#cdd9ea" font-size="12" font-weight="700" text-anchor="middle">📖 JOURNAL</text><rect x="200" y="926" width="160" height="38" rx="9" fill="rgba(20,26,40,0.92)" stroke="rgba(124,77,255,0.4)"/><text x="280" y="950" fill="#cdd9ea" font-size="12" font-weight="700" text-anchor="middle">🐚 WALLET</text><rect x="372" y="926" width="160" height="38" rx="9" fill="rgba(20,26,40,0.92)" stroke="rgba(124,77,255,0.4)"/><text x="452" y="950" fill="#cdd9ea" font-size="12" font-weight="700" text-anchor="middle">⚔ FIGHT</text></svg>