<svg xmlns="http://www.w3.org/2000/svg" width="560" height="980" viewBox="0 0 560 980" font-family="-apple-system,Segoe UI,Roboto,sans-serif"><rect width="560" height="980" fill="#0a0e16"/><line x1="0" y1="96" x2="560" y2="96" stroke="rgba(125,138,160,0.08)" stroke-width="1"/><line x1="0" y1="198" x2="560" y2="198" stroke="rgba(125,138,160,0.08)" stroke-width="1"/><line x1="0" y1="299" x2="560" y2="299" stroke="rgba(125,138,160,0.08)" stroke-width="1"/><line x1="0" y1="401" x2="560" y2="401" stroke="rgba(125,138,160,0.08)" stroke-width="1"/><line x1="0" y1="502" x2="560" y2="502" stroke="rgba(125,138,160,0.08)" stroke-width="1"/><line x1="0" y1="604" x2="560" y2="604" stroke="rgba(125,138,160,0.08)" stroke-width="1"/><line x1="0" y1="705" x2="560" y2="705" stroke="rgba(125,138,160,0.08)" stroke-width="1"/><line x1="0" y1="807" x2="560" y2="807" stroke="rgba(125,138,160,0.08)" stroke-width="1"/><line x1="0" y1="908" x2="560" y2="908" stroke="rgba(125,138,160,0.08)" stroke-width="1"/><line x1="30.8" y1="841.4" x2="30.8" y2="972.3" stroke="#8595ad" stroke-width="3.49"/><rect x="18.3" y="857.3" width="24.9" height="99.0" rx="2" fill="#16c784" stroke="#33e6a0" stroke-width="0.8"/><line x1="72.3" y1="755.6" x2="72.3" y2="873.3" stroke="#8595ad" stroke-width="3.49"/><rect x="59.8" y="779.5" width="24.9" height="77.8" rx="2" fill="#16c784" stroke="#33e6a0" stroke-width="0.8"/><line x1="113.8" y1="763.6" x2="113.8" y2="848.9" stroke="#8595ad" stroke-width="3.49"/><rect x="101.4" y="779.5" width="24.9" height="45.5" rx="2" fill="#ea3943" stroke="#ff6b73" stroke-width="0.8"/><line x1="155.4" y1="694.4" x2="155.4" y2="841.0" stroke="#8595ad" stroke-width="3.49"/><rect x="142.9" y="710.3" width="24.9" height="114.7" rx="2" fill="#16c784" stroke="#33e6a0" stroke-width="0.8"/><line x1="196.9" y1="624.4" x2="196.9" y2="726.3" stroke="#8595ad" stroke-width="3.49"/><rect x="184.5" y="640.3" width="24.9" height="70.0" rx="2" fill="#16c784" stroke="#33e6a0" stroke-width="0.8"/><line x1="238.5" y1="624.4" x2="238.5" y2="720.2" stroke="#8595ad" stroke-width="3.49"/><rect x="226.0" y="640.3" width="24.9" height="63.9" rx="2" fill="#ea3943" stroke="#ff6b73" stroke-width="0.8"/><line x1="280.0" y1="609.5" x2="280.0" y2="720.2" stroke="#8595ad" stroke-width="3.49"/><rect x="267.5" y="625.5" width="24.9" height="78.8" rx="2" fill="#16c784" stroke="#33e6a0" stroke-width="0.8"/><line x1="321.5" y1="523.9" x2="321.5" y2="641.4" stroke="#8595ad" stroke-width="3.49"/><rect x="309.1" y="547.9" width="24.9" height="77.6" rx="2" fill="#16c784" stroke="#33e6a0" stroke-width="0.8"/><line x1="363.1" y1="531.9" x2="363.1" y2="600.5" stroke="#8595ad" stroke-width="3.49"/><rect x="350.6" y="547.9" width="24.9" height="36.7" rx="2" fill="#ea3943" stroke="#ff6b73" stroke-width="0.8"/><line x1="404.6" y1="474.0" x2="404.6" y2="600.5" stroke="#8595ad" stroke-width="3.49"/><rect x="392.2" y="490.0" width="24.9" height="94.6" rx="2" fill="#16c784" stroke="#33e6a0" stroke-width="0.8"/><line x1="446.2" y1="407.3" x2="446.2" y2="506.0" stroke="#8595ad" stroke-width="3.49"/><rect x="433.7" y="423.3" width="24.9" height="66.7" rx="2" fill="#16c784" stroke="#33e6a0" stroke-width="0.8"/><line x1="487.7" y1="407.3" x2="487.7" y2="479.6" stroke="#8595ad" stroke-width="3.49"/><rect x="475.2" y="423.3" width="24.9" height="40.3" rx="2" fill="#ea3943" stroke="#ff6b73" stroke-width="0.8"/><line x1="529.2" y1="371.4" x2="529.2" y2="479.6" stroke="#8595ad" stroke-width="3.49"/><rect x="516.8" y="387.4" width="24.9" height="76.3" rx="2" fill="#16c784" stroke="#33e6a0" stroke-width="0.8"/><rect x="0" y="392" width="560" height="196" fill="rgba(124,77,255,0.06)"/><line x1="0" y1="490" x2="560" y2="490" stroke="rgba(150,130,230,0.28)" stroke-width="1" stroke-dasharray="3 6"/><text x="548" y="386" fill="rgba(165,150,220,0.7)" font-size="10.5" text-anchor="end">camera keeps turtle 40–60%</text><ellipse cx="388.61538461538464" cy="486.0" rx="7" ry="3.4" fill="rgba(61,220,106,0.3)"/><g><ellipse cx="404.61538461538464" cy="477" rx="27.75" ry="20.35" fill="rgba(61,220,106,0.16)"/><rect x="391.7" y="485.3" width="7.4" height="9.25" rx="2.7750000000000004" fill="#3ddc6a"/><rect x="408.3" y="485.3" width="7.4" height="9.25" rx="2.7750000000000004" fill="#3ddc6a"/><ellipse cx="404.61538461538464" cy="477" rx="20.35" ry="15.725000000000001" fill="#2bb455" stroke="#157a36" stroke-width="2.9600000000000004"/><path d="M395.4 471.4 L404.6 466.8 L413.9 471.4 M395.4 482.6 L404.6 487.2 L413.9 482.6 M404.6 466.8 L404.6 487.2" stroke="#157a36" stroke-width="1.85" fill="none" opacity="0.8"/><circle cx="425.0" cy="475.1" r="9.25" fill="#3ddc6a"/><rect x="420.3" y="470.7" width="10.175" height="6.66" rx="2.9600000000000004" fill="#10141a"/><circle cx="427.9" cy="473.7" r="1.4800000000000002" fill="#3b4a5e"/></g><rect x="0" y="0" width="560" height="96" fill="rgba(7,10,18,0.9)"/><text x="22" y="40" fill="#eaf2ff" font-size="20" font-weight="800">GUARDIAN 1 · TRAVERSAL</text><text x="22" y="64" fill="#9fb0c4" font-size="13">Normal readable section — clear steps, turtle stays centered</text><rect x="22" y="78" width="516" height="6" rx="3" fill="rgba(255,255,255,0.08)"/><rect x="22" y="78" width="237.36" height="6" rx="3" fill="#ffd60a"/><rect x="0" y="908" width="560" height="72" fill="rgba(7,10,18,0.9)"/><rect x="28" y="926" width="160" height="38" rx="9" fill="rgba(20,26,40,0.92)" stroke="rgba(124,77,255,0.4)"/><text x="108" y="950" fill="#cdd9ea" font-size="12" font-weight="700" text-anchor="middle">📖 JOURNAL</text><rect x="200" y="926" width="160" height="38" rx="9" fill="rgba(20,26,40,0.92)" stroke="rgba(124,77,255,0.4)"/><text x="280" y="950" fill="#cdd9ea" font-size="12" font-weight="700" text-anchor="middle">🐚 WALLET</text><rect x="372" y="926" width="160" height="38" rx="9" fill="rgba(20,26,40,0.92)" stroke="rgba(124,77,255,0.4)"/><text x="452" y="950" fill="#cdd9ea" font-size="12" font-weight="700" text-anchor="middle">⚔ FIGHT</text></svg>